<svg width="39" height="39" viewBox="0 0 39 39" fill="none" xmlns="http://www.w3.org/2000/svg">
<path d="M35.1479 0C36.1635 0 37.0522 0.337333 37.8139 1.012C38.5756 1.68666 38.9565 2.53181 38.9565 3.54743C38.9565 4.4615 38.63 5.55692 37.9771 6.83371C33.1602 15.9598 29.7868 21.4152 27.8571 23.1998C26.4498 24.5201 24.8683 25.1802 23.1127 25.1802C21.2846 25.1802 19.714 24.5092 18.4009 23.1671C17.0879 21.8251 16.4314 20.2327 16.4314 18.3901C16.4314 16.5329 17.0988 14.995 18.4336 13.7762L32.3186 1.17522C33.1747 0.391741 34.1177 0 35.1479 0ZM15.365 22.5033C15.9308 23.606 16.7034 24.5491 17.6828 25.3326C18.6621 26.1161 19.7539 26.6674 20.9581 26.9866L20.9799 28.5318C21.0379 31.6222 20.0985 34.1395 18.1616 36.0837C16.2246 38.0279 13.6964 39 10.577 39C8.79241 39 7.21094 38.6627 5.83259 37.988C4.45424 37.3133 3.34793 36.3884 2.51367 35.2132C1.67941 34.0379 1.0519 32.7104 0.631138 31.2305C0.210379 29.7506 0 28.1546 0 26.4425C0.101562 26.5151 0.398996 26.7327 0.892299 27.0954C1.3856 27.4581 1.83538 27.781 2.24163 28.0639C2.64788 28.3468 3.07589 28.6116 3.52567 28.8583C3.97545 29.1049 4.30915 29.2282 4.52679 29.2282C5.12165 29.2282 5.52065 28.9598 5.72377 28.423C6.0865 27.4654 6.50363 26.6493 6.97517 25.9746C7.44671 25.2999 7.95089 24.7486 8.48772 24.3206C9.02455 23.8926 9.66295 23.548 10.4029 23.2868C11.1429 23.0257 11.8901 22.8407 12.6445 22.7319C13.399 22.623 14.3058 22.5469 15.365 22.5033Z" fill="#003381"/>
</svg>
