<svg width="36" height="26" viewBox="0 0 36 26" fill="none" xmlns="http://www.w3.org/2000/svg">
<path d="M32.8929 0.589279H3.10714C2.44884 0.589279 1.81749 0.85079 1.352 1.31628C0.886511 1.78177 0.625 2.41312 0.625 3.07142V22.9286C0.625 23.5869 0.886511 24.2182 1.352 24.6837C1.81749 25.1492 2.44884 25.4107 3.10714 25.4107H32.8929C33.5512 25.4107 34.1825 25.1492 34.648 24.6837C35.1135 24.2182 35.375 23.5869 35.375 22.9286V3.07142C35.375 2.41312 35.1135 1.78177 34.648 1.31628C34.1825 0.85079 33.5512 0.589279 32.8929 0.589279ZM30.1625 3.07142L18 11.4859L5.8375 3.07142H30.1625ZM3.10714 22.9286V4.2008L17.2926 14.0177C17.5003 14.1618 17.7472 14.239 18 14.239C18.2528 14.239 18.4997 14.1618 18.7074 14.0177L32.8929 4.2008V22.9286H3.10714Z" fill="#003381"/>
</svg>
