<svg width="42" height="40" viewBox="0 0 42 40" fill="none" xmlns="http://www.w3.org/2000/svg">
<path fill-rule="evenodd" clip-rule="evenodd" d="M21 0.0057373C9.67375 0.0057373 0.5 9.17949 0.5 20.5057C0.5 29.577 6.36812 37.2389 14.5169 39.9551C15.5419 40.1345 15.9262 39.5195 15.9262 38.9814C15.9262 38.4945 15.9006 36.8801 15.9006 35.1632C10.75 36.1114 9.4175 33.9076 9.0075 32.7545C8.77688 32.1651 7.7775 30.3457 6.90625 29.8589C6.18875 29.4745 5.16375 28.5264 6.88062 28.5007C8.495 28.4751 9.64812 29.987 10.0325 30.602C11.8775 33.7026 14.8244 32.8314 16.0031 32.2932C16.1825 30.9607 16.7206 30.0639 17.31 29.5514C12.7488 29.0389 7.9825 27.2707 7.9825 19.4295C7.9825 17.2001 8.77688 15.3551 10.0838 13.9201C9.87875 13.4076 9.16125 11.3064 10.2888 8.48761C10.2888 8.48761 12.0056 7.94949 15.9262 10.5889C17.5662 10.1276 19.3088 9.89699 21.0513 9.89699C22.7938 9.89699 24.5363 10.1276 26.1763 10.5889C30.0969 7.92386 31.8138 8.48761 31.8138 8.48761C32.9412 11.3064 32.2238 13.4076 32.0188 13.9201C33.3256 15.3551 34.12 17.1745 34.12 19.4295C34.12 27.2964 29.3281 29.0389 24.7669 29.5514C25.51 30.192 26.1506 31.422 26.1506 33.3439C26.1506 36.0857 26.125 38.2895 26.125 38.9814C26.125 39.5195 26.5094 40.1601 27.5344 39.9551C31.6039 38.5811 35.1402 35.9656 37.6454 32.4767C40.1507 28.9877 41.4988 24.801 41.5 20.5057C41.5 9.17949 32.3263 0.0057373 21 0.0057373Z" fill="#003381"/>
</svg>
