<svg width="33" height="34" viewBox="0 0 33 34" fill="none" xmlns="http://www.w3.org/2000/svg">
<path fill-rule="evenodd" clip-rule="evenodd" d="M12.3008 12.0494H18.367V15.071C19.2408 13.3332 21.4817 11.7717 24.848 11.7717C31.3013 11.7717 32.8334 15.2311 32.8334 21.5782V33.3333H26.3001V23.0237C26.3001 19.4092 25.4263 17.3708 23.2017 17.3708C20.1163 17.3708 18.8341 19.5676 18.8341 23.0221V33.3333H12.3008V12.0494ZM1.09775 33.0557H7.63108V11.7717H1.09775V33.0557ZM8.56698 4.83167C8.56722 5.37929 8.45862 5.92149 8.24748 6.42676C8.03634 6.93204 7.72688 7.39031 7.33708 7.77494C6.5472 8.55996 5.47804 8.99937 4.36442 8.99667C3.25275 8.99593 2.18606 8.55763 1.39502 7.77657C1.00663 7.39064 0.698212 6.93185 0.487443 6.42651C0.276674 5.92117 0.167694 5.37921 0.166748 4.83167C0.166748 3.72591 0.607748 2.66751 1.39665 1.88677C2.18699 1.10466 3.25414 0.666183 4.36605 0.666672C5.47998 0.666672 6.54818 1.10604 7.33708 1.88677C8.12435 2.66751 8.56698 3.72591 8.56698 4.83167Z" fill="#003381"/>
</svg>
